<svg xmlns="http://www.w3.org/2000/svg" version="1.1" xmlns:xlink="http://www.w3.org/1999/xlink" xmlns:svgjs="http://svgjs.dev/svgjs" width="1000" height="1000" viewBox="0 0 1000 1000"><rect width="1000" height="1000" fill="#ffffff"></rect><g transform="matrix(0.7,0,0,0.7,149.57577641266846,439.10858042554435)"><svg viewBox="0 0 396 69" data-background-color="#ffffff" preserveAspectRatio="xMidYMid meet" height="174" width="1000" xmlns="http://www.w3.org/2000/svg" xmlns:xlink="http://www.w3.org/1999/xlink"><g id="tight-bounds" transform="matrix(1,0,0,1,0.2399893436904108,-0.00486083220494038)"><svg viewBox="0 0 395.52 69.00972166440988" height="69.00972166440988" width="395.52"><g><svg viewBox="0 0 395.52 69.00972166440988" height="69.00972166440988" width="395.52"><g><svg viewBox="0 0 395.52 69.00972166440988" height="69.00972166440988" width="395.52"><g id="textblocktransform"><svg viewBox="0 0 395.52 69.00972166440988" height="69.00972166440988" width="395.52" id="textblock"><g><svg viewBox="0 0 395.52 37.22054633381257" height="37.22054633381257" width="395.52"><g transform="matrix(1,0,0,1,0,0)"><svg width="395.52" viewBox="-0.25 -35.25 382.510009765625 36" height="37.22054633381257" data-palette-color="url(#4f1d99b4-c183-41d9-9894-d1dd9f391408)"></svg></g></svg></g><g transform="matrix(1,0,0,1,0,46.00742403011371)"><svg viewBox="0 0 395.52 23.00229763429617" height="23.00229763429617" width="395.52"><g transform="matrix(1,0,0,1,0,0)"><svg width="395.52" viewBox="4.949999809265137 -35 773.7699584960938 45" height="23.00229763429617" data-palette-color="#ffffff"><path d="M12.95 0L12.95 0 4.95 0 4.95-35 11.05-35Q17.65-35 21-32.58 24.35-30.15 24.35-25.75L24.35-25.75Q24.35-20.75 20.15-18.4L20.15-18.4Q26.25-16.1 26.25-9.75L26.25-9.75Q26.25-5.25 22.95-2.63 19.65 0 12.95 0ZM6.45-1.5L12.95-1.5Q15.3-1.5 17.25-1.88 19.2-2.25 20.98-3.13 22.75-4 23.75-5.7 24.75-7.4 24.75-9.75L24.75-9.75Q24.75-15.1 19.6-17L19.6-17 16.6-18.1 19.4-19.7Q22.85-21.6 22.85-25.75L22.85-25.75Q22.85-33.5 11.05-33.5L11.05-33.5 6.45-33.5 6.45-1.5ZM259.21-1.5L274.41-1.5 274.41 0 257.71 0 257.71-29 259.21-29 259.21-1.5ZM518.76-27.48Q517.06-28 514.56-28 512.06-28 510.36-27.48 508.66-26.95 507.24-25.53 505.81-24.1 505.11-21.38 504.41-18.65 504.41-14.5 504.41-10.35 505.11-7.63 505.81-4.9 507.24-3.48 508.66-2.05 510.36-1.53 512.06-1 514.56-1 517.06-1 518.76-1.53 520.46-2.05 521.89-3.48 523.31-4.9 524.01-7.63 524.71-10.35 524.71-14.5 524.71-18.65 524.01-21.38 523.31-24.1 521.89-25.53 520.46-26.95 518.76-27.48ZM523.51-3.05Q520.81 0.5 514.56 0.5 508.31 0.5 505.61-3.05 502.91-6.6 502.91-14.5 502.91-22.4 505.61-25.95 508.31-29.5 514.56-29.5 520.81-29.5 523.51-25.95 526.21-22.4 526.21-14.5 526.21-6.6 523.51-3.05ZM772.47-19.5L770.12-19.5 776.77-25.05Q774.57-28 768.87-28L768.87-28Q766.37-28 764.67-27.48 762.97-26.95 761.54-25.53 760.12-24.1 759.42-21.38 758.72-18.65 758.72-14.5 758.72-10.35 759.42-7.63 760.12-4.9 761.54-3.48 762.97-2.05 764.67-1.53 766.37-1 768.87-1L768.87-1Q774.52-1 776.72-3.9L776.72-3.9 776.72-12.75 778.22-12.75 778.22 0.45Q778.22 10 769.47 10L769.47 10 763.62 10 763.62 8.5 769.47 8.5Q773.22 8.5 774.97 6.53 776.72 4.55 776.72-1L776.72-1 776.72-1.75Q774.02 0.5 768.87 0.5L768.87 0.5Q762.62 0.5 759.92-3.05 757.22-6.6 757.22-14.5 757.22-22.4 759.92-25.95 762.62-29.5 768.87-29.5L768.87-29.5Q776.12-29.5 778.72-24.75L778.72-24.75 772.47-19.5Z" opacity="1" transform="matrix(1,0,0,1,0,0)" fill="#ffffff" class="slogan-text-1" data-fill-palette-color="secondary" id="text-1"></path></svg></g></svg></g></svg></g></svg></g><g></g></svg></g><defs></defs><mask id="96d1ad2d-76da-40a9-9094-a965e12ae296"><g id="SvgjsG1018"><svg viewBox="0 0 395.52 69.00972166440988" height="69.00972166440988" width="395.52"><g><svg viewBox="0 0 395.52 69.00972166440988" height="69.00972166440988" width="395.52"><g><svg viewBox="0 0 395.52 69.00972166440988" height="69.00972166440988" width="395.52"><g id="SvgjsG1017"><svg viewBox="0 0 395.52 69.00972166440988" height="69.00972166440988" width="395.52" id="SvgjsSvg1016"><g><svg viewBox="0 0 395.52 37.22054633381257" height="37.22054633381257" width="395.52"><g transform="matrix(1,0,0,1,0,0)"><svg width="395.52" viewBox="-0.25 -35.25 382.510009765625 36" height="37.22054633381257" data-palette-color="url(#4f1d99b4-c183-41d9-9894-d1dd9f391408)"><path d="M17.85-34.55L24.35-34.55 15.25-13.15 15.25 0 8.85 0 8.85-13.1-0.25-34.55 6.5-34.55 12.15-18.3 17.85-34.55ZM38.55-35.25Q44.65-35.25 47.95-30.8 51.25-26.35 51.25-17.3L51.25-17.3Q51.25-8.35 47.95-3.8 44.65 0.75 38.55 0.75L38.55 0.75Q32.5 0.75 29.17-3.75 25.85-8.25 25.85-17.25L25.85-17.25Q25.85-26.15 29.17-30.7 32.5-35.25 38.55-35.25L38.55-35.25ZM38.55-30.45Q35.5-30.45 34.02-27.4 32.55-24.35 32.55-17.25L32.55-17.25Q32.55-10.1 34.05-7.13 35.55-4.15 38.55-4.15L38.55-4.15Q41.65-4.15 43.12-7.1 44.6-10.05 44.6-17.3L44.6-17.3Q44.6-24.4 43.1-27.43 41.6-30.45 38.55-30.45L38.55-30.45ZM77.34-34.55L77.34-9.7Q77.34-5.15 74.52-2.23 71.7 0.7 66.45 0.7L66.45 0.7Q61.1 0.7 58.3-2.18 55.5-5.05 55.5-9.7L55.5-9.7 55.5-34.55 61.85-34.55 61.85-10Q61.85-7.1 62.95-5.68 64.05-4.25 66.45-4.25L66.45-4.25Q68.8-4.25 69.9-5.68 71-7.1 71-10L71-10 71-34.55 77.34-34.55ZM114.64 0L108.19 0 106.49-8.1 97.59-8.1 95.94 0 89.59 0 98.29-34.55 105.99-34.55 114.64 0ZM102.04-29.7L98.59-12.9 105.54-12.9 102.04-29.7ZM139.89 0L133.04 0 126.94-13.95 126.34-13.95 123.89-13.95 123.89 0 117.54 0 117.54-34.55 125.69-34.55Q138.19-34.55 138.19-24.4L138.19-24.4Q138.19-21.25 136.79-18.82 135.39-16.4 132.59-15.15L132.59-15.15 139.89 0ZM125.99-18.55Q128.94-18.55 130.26-19.95 131.59-21.35 131.59-24.4L131.59-24.4Q131.59-27.25 130.21-28.58 128.84-29.9 125.69-29.9L125.69-29.9 123.89-29.9 123.89-18.55 125.99-18.55ZM143.09-34.55L160.24-34.55 159.59-29.8 149.44-29.8 149.44-19.9 158.28-19.9 158.28-15.2 149.44-15.2 149.44-4.8 160.24-4.8 160.24 0 143.09 0 143.09-34.55ZM196.18-34.55L196.18 0 188.08 0 179.33-28.3Q179.73-24.7 179.96-21.68 180.18-18.65 180.18-14.5L180.18-14.5 180.18 0 174.58 0 174.58-34.55 182.63-34.55 191.38-6.25Q191.08-8.05 190.81-11.35 190.53-14.65 190.53-18.05L190.53-18.05 190.53-34.55 196.18-34.55ZM213.63-35.25Q219.73-35.25 223.03-30.8 226.33-26.35 226.33-17.3L226.33-17.3Q226.33-8.35 223.03-3.8 219.73 0.75 213.63 0.75L213.63 0.75Q207.58 0.75 204.25-3.75 200.93-8.25 200.93-17.25L200.93-17.25Q200.93-26.15 204.25-30.7 207.58-35.25 213.63-35.25L213.63-35.25ZM213.63-30.45Q210.58-30.45 209.1-27.4 207.63-24.35 207.63-17.25L207.63-17.25Q207.63-10.1 209.13-7.13 210.63-4.15 213.63-4.15L213.63-4.15Q216.73-4.15 218.2-7.1 219.68-10.05 219.68-17.3L219.68-17.3Q219.68-24.4 218.18-27.43 216.68-30.45 213.63-30.45L213.63-30.45ZM228.48-34.55L250.03-34.55 249.33-29.55 242.23-29.55 242.23 0 235.88 0 235.88-29.55 228.48-29.55 228.48-34.55ZM284.87 0L278.42 0 276.72-8.1 267.82-8.1 266.17 0 259.82 0 268.52-34.55 276.22-34.55 284.87 0ZM272.27-29.7L268.82-12.9 275.77-12.9 272.27-29.7ZM287.77-34.55L294.12-34.55 294.12-5.25 305.27-5.25 304.57 0 287.77 0 287.77-34.55ZM320.07-35.25Q326.17-35.25 329.47-30.8 332.77-26.35 332.77-17.3L332.77-17.3Q332.77-8.35 329.47-3.8 326.17 0.75 320.07 0.75L320.07 0.75Q314.02 0.75 310.69-3.75 307.37-8.25 307.37-17.25L307.37-17.25Q307.37-26.15 310.69-30.7 314.02-35.25 320.07-35.25L320.07-35.25ZM320.07-30.45Q317.02-30.45 315.54-27.4 314.07-24.35 314.07-17.25L314.07-17.25Q314.07-10.1 315.57-7.13 317.07-4.15 320.07-4.15L320.07-4.15Q323.17-4.15 324.64-7.1 326.12-10.05 326.12-17.3L326.12-17.3Q326.12-24.4 324.62-27.43 323.12-30.45 320.07-30.45L320.07-30.45ZM359.11-34.55L359.11 0 351.01 0 342.26-28.3Q342.66-24.7 342.89-21.68 343.11-18.65 343.11-14.5L343.11-14.5 343.11 0 337.51 0 337.51-34.55 345.56-34.55 354.31-6.25Q354.01-8.05 353.74-11.35 353.46-14.65 353.46-18.05L353.46-18.05 353.46-34.55 359.11-34.55ZM365.11-34.55L382.26-34.55 381.61-29.8 371.46-29.8 371.46-19.9 380.31-19.9 380.31-15.2 371.46-15.2 371.46-4.8 382.26-4.8 382.26 0 365.11 0 365.11-34.55Z" opacity="1" transform="matrix(1,0,0,1,0,0)" fill="white" class="wordmark-text-0" id="SvgjsPath1015"></path></svg></g></svg></g><g transform="matrix(1,0,0,1,0,46.00742403011371)"><svg viewBox="0 0 395.52 23.00229763429617" height="23.00229763429617" width="395.52"><g transform="matrix(1,0,0,1,0,0)"><svg width="395.52" viewBox="4.949999809265137 -35 773.7699584960938 45" height="23.00229763429617" data-palette-color="#ffffff"></svg></g></svg></g></svg></g></svg></g><g></g></svg></g><defs><mask></mask></defs></svg></g></mask><linearGradient x1="0" x2="1" y1="0.578" y2="0.595" id="4f1d99b4-c183-41d9-9894-d1dd9f391408"><stop stop-color="#6ee2f5" offset="0"></stop><stop stop-color="#6454f0" offset="1"></stop></linearGradient><rect width="395.5199890136719" height="69.00971984863281" fill="url(#4f1d99b4-c183-41d9-9894-d1dd9f391408)" mask="url(#96d1ad2d-76da-40a9-9094-a965e12ae296)" data-fill-palette-color="primary"></rect></svg><rect width="395.52" height="69.00972166440988" fill="none" stroke="none" visibility="hidden"></rect></g></svg></g></svg>